<svg width="27" height="24" viewBox="0 0 27 24" fill="none" xmlns="http://www.w3.org/2000/svg">
<path d="M9.87969 19H9.35285C5.13808 19 3.0307 18 3.0307 13V8C3.0307 4 5.13808 2 9.35285 2H17.7824C21.9971 2 24.1045 4 24.1045 8V13C24.1045 17 21.9971 19 17.7824 19H17.2555C16.9289 19 16.6128 19.15 16.4126 19.4L14.832 21.4C14.1366 22.28 12.9986 22.28 12.3032 21.4L10.7226 19.4C10.5541 19.18 10.1642 19 9.87969 19Z" stroke="#F7B932" stroke-opacity="0.8" stroke-width="1.5" stroke-miterlimit="10" stroke-linecap="round" stroke-linejoin="round"/>
<path d="M8.29919 8H18.8361" stroke="#F7B932" stroke-opacity="0.8" stroke-width="1.5" stroke-linecap="round" stroke-linejoin="round"/>
<path d="M8.29919 13H14.6213" stroke="#F7B932" stroke-opacity="0.8" stroke-width="1.5" stroke-linecap="round" stroke-linejoin="round"/>
</svg>
